<svg xmlns="http://www.w3.org/2000/svg" viewBox="0 0 1200 800"><rect width="1200" height="800" fill="#f6f5f0"/><path d="M0 102h1200M0 698h1200" stroke="#c9cec9"/><text x="72" y="72" fill="#163b31" font-family="Arial,sans-serif" font-size="15" letter-spacing="3">AXIOM / DECISION FIELD / ILLUSTRATIVE FRAMEWORK</text><g fill="none" stroke="#8ca99a" stroke-width="2"><path d="M183 240h212l92 105 0 112-92 105H183l-92-105V345Z"/><path d="M495 345h210v112H495"/><path d="M705 240h212l92 105v112l-92 105H705"/><path d="M395 240h310M395 562h310"/></g><g fill="#fff" stroke="#163b31" stroke-width="2"><circle cx="183" cy="401" r="77"/><circle cx="395" cy="240" r="66"/><circle cx="495" cy="345" r="66"/><circle cx="705" cy="457" r="66"/><circle cx="917" cy="562" r="66"/><circle cx="1017" cy="401" r="77"/></g><g fill="#163b31" font-family="Arial,sans-serif" text-anchor="middle"><text x="183" y="395" font-size="15" letter-spacing="2">01</text><text x="183" y="420" font-size="17">OBJECTIVE</text><text x="395" y="235" font-size="14" letter-spacing="2">02</text><text x="395" y="258" font-size="14">CONSTRAINT</text><text x="495" y="340" font-size="14" letter-spacing="2">03</text><text x="495" y="363" font-size="14">EVIDENCE</text><text x="705" y="452" font-size="14" letter-spacing="2">04</text><text x="705" y="475" font-size="14">OPTIONS</text><text x="917" y="557" font-size="14" letter-spacing="2">05</text><text x="917" y="580" font-size="14">TRADE-OFF</text><text x="1017" y="395" font-size="15" letter-spacing="2">06</text><text x="1017" y="420" font-size="17">DECISION</text></g><path d="M183 478v90M1017 323V227" stroke="#a76543" stroke-width="3" stroke-dasharray="5 8"/><text x="72" y="748" fill="#58665f" font-family="Arial,sans-serif" font-size="13" letter-spacing="2">A FRAMEWORK CLARIFIES THE QUESTION. IT DOES NOT GUARANTEE THE ANSWER.</text></svg>
