<svg xmlns="http://www.w3.org/2000/svg" viewBox="0 0 1200 840"><defs><linearGradient id="bg" x2="1" y2="1"><stop stop-color="#171b22"/><stop offset="1" stop-color="#090b10"/></linearGradient><radialGradient id="glow"><stop stop-color="#b35c37" stop-opacity=".72"/><stop offset="1" stop-color="#5a2430" stop-opacity="0"/></radialGradient></defs><rect width="1200" height="840" fill="url(#bg)"/><path d="M0 637c230-158 370-165 540-66 217-146 437-146 660-4v273H0Z" fill="#21322e"/><circle cx="864" cy="280" r="290" fill="url(#glow)"/><g transform="translate(242 104) rotate(-8 250 320)"><rect width="490" height="640" rx="8" fill="#11151b" stroke="#c9a85e" stroke-width="3"/><rect x="19" y="20" width="452" height="600" rx="4" fill="none" stroke="#705c38"/><text x="44" y="65" fill="#d9c189" font-family="Arial,sans-serif" font-size="17" letter-spacing="4">EMBER ARCHIVE / 014</text><rect x="43" y="98" width="404" height="368" fill="#1e2929"/><circle cx="250" cy="237" r="105" fill="#bd683c" opacity=".7"/><path d="M52 440c59-115 108-147 157-136 40-130 106-146 151-37 27-95 66-107 88-31v230H52Z" fill="#c28f56"/><path d="M63 444c80-64 137-63 183-1 68-84 126-79 189 1" fill="none" stroke="#e4cf9f" stroke-width="5"/><path d="M252 204c-35-74-104-49-83 7-52 32-14 91 31 59 30 55 83 19 52-21 59-30 16-84 0-45Z" fill="#e5bc75"/><circle cx="246" cy="239" r="10" fill="#1c2425"/><rect x="43" y="489" width="404" height="2" fill="#615438"/><text x="45" y="531" fill="#f3f3f0" font-family="Georgia,serif" font-size="25">Ember Keeper</text><text x="45" y="566" fill="#a7a9b0" font-family="Arial,sans-serif" font-size="14" letter-spacing="2">A FICTIONAL CARD ART CONCEPT</text><text x="45" y="599" fill="#c9a85e" font-family="Arial,sans-serif" font-size="13">NO REAL TCG ART · NO INVENTORY</text></g><text x="824" y="704" fill="#c9a85e" font-family="Arial,sans-serif" font-size="16" letter-spacing="4">VAULT / ORIGINAL CONCEPT</text></svg>
